<svg fill="none" viewBox="0 0 23 23" xmlns="http://www.w3.org/2000/svg"><path clip-rule="evenodd" d="m3.60816 8.27993h5.20375l.69.6325c.01654.01654.02356.02356.03202.02655.00624.0022.01327.0022.02548.0022.02875 0 .0575 0 .0575-.02875l1.83999-2.0125c.0288-.02875.0288-.0575.0288-.11499v-.00001c-.0288-.02875-.0575-.0575-.0863-.0575h-6.75624c-.2875-.02875-.54625.0575-.77625.20125-.20125.1725-.37375.46-.37375.9775v.23c0 .08625.0575.14375.115.14375zm17.27874-1.46625h-7.4175l-.0575.02875-1.3512 1.265c-.0288.02875-.0288.115 0 .14375.0287.02875.0575.02875.0575.02875h5.9512l.3163.43125c.0287.02875.0862.0575.1437.02875l2.415-1.725c.0288-.02875.0575-.08625 0-.14375 0-.02875-.0287-.0575-.0575-.0575zm-2.4725 7.90622c.0863 0 .115.0575.115.115-.0287.2588-.6037 1.0638-2.9037 1.0638-1.5238 0-3.4213-1.5238-3.9388-3.105l-.0084-.0288c-.1952-.6693-.2791-.9568-.2791-1.5237 0-.7188.115-1.43752.345-2.09877 0-.02875.0575-.0575.0863-.0575h2.645c.0287 0 .0575 0 .0862.02875.0288.02875.0288.0575.0288.08625-.115.575-.1438 1.17877-.1438 1.75377 0 .23 0 .4312.0288.6612.1437 1.7538 1.5812 3.105 3.335 3.1625.2012 0 .4025-.0287.6037-.0575z" fill="#cce1ff" fill-rule="evenodd"/><path d="m21.2031 7.35987c.2013-.31625 0-.8625.0288-1.23625.0575-.37375.69-1.29375.6325-1.6675-.3163.02875-.8338.08625-1.38 0-.575-.0575-2.0125.20125-2.53.43125s.115-.20125-.2875-.37375c-.4025-.14375-2.0413.5175-2.0413.5175l-1.5812-.115-2.4725.25875-2.50129-.23-1.58125.115s-1.63875-.69-2.04125-.5175c-.4025.14375.25875.575-.2875.37375-.5175-.23-1.955-.48875-2.53-.43125s-1.06375.02875-1.38 0c-.0575.345.60375 1.29375.6325 1.6675.0575.37375-.1725.92.02875 1.23625s-.14375.48875-.14375.8625.77625.92.69 1.23625c-.08625.2875-.115.94873 0 1.49503.115.5462.4025 1.5237.31625 1.9837-.08625.4313-.37375 1.3225-.31625 1.5238.0575.2012.08625.3737.08625.6612 0 .2588.2875 1.0063.23 1.3513s.08625.92.02875 1.0925-.4025.9775-.08625.8912c.2875-.0862 2.1275-.1437 2.73125-.1437.2875 0 1.58125.1437 3.01875.1437.805 0 .69-.0287 1.40875-.115.25879.115 1.43749.115 1.55249.0863.0288 0 .0863-.0288.1438-.0288s.0862.0288.1437.0288c.115.0287 1.265.0287 1.5525-.0863.7188.0863.6038.115 1.4088.115 1.4375.0288 2.7312-.1437 3.0187-.1437.6325 0 2.4438.0287 2.7313.1437.2875.0863-.0575-.69-.0863-.8912-.0575-.1725.115-.7475.0288-1.0925-.0575-.345.23-1.0925.23-1.3513 0-.2587.0287-.46.0862-.6612.0575-.2013-.2587-1.0925-.3162-1.5238-.0863-.4312.2012-1.4087.3162-1.9837.115-.5463.0863-1.20753 0-1.49503-.0862-.2875.69-.8625.69-1.23625 0-.4025-.3737-.575-.1725-.89125z" fill="#1e394f"/><path d="m5.5343 6.18115h3.45c-.08625.37375-.115.77625-.115 1.17875.14375 1.52375 1.15 5.75 1.15 5.75l1.6388-6.58375 1.6387 6.44005s1.0063-5.6638 1.0063-6.03755c-.0288-.2875-.1725-.54625-.4025-.71875h3.6225c-.4888.46-.8338 1.00625-1.035 1.63875-.3163 1.23625-1.4375 7.53255-1.4375 7.93505.0287.4025.1725.805.4312 1.1212h-3.3637c.0862-.2875.115-.6037.115-.92 0-.575-.5463-3.3062-.5463-3.3062s-.69 2.8175-.69 3.335c0 .3162.0863.6037.23.8912h-3.5075s.66125-.46.6325-.92c-.08625-1.2937-1.86875-7.96375-2.0125-8.48125-.08625-.5175-.37375-1.00625-.805-1.3225z" fill="#f3be25"/><g fill="#79abcb"><path d="m6.82815 18.5724c0-.115 0-3.1625 0-5.06 0 0 0-.69 0-1.725-.31625-1.2937-.66125-2.55874-.83375-3.30624-.115-.48875-.20125-.77625-.23-.8625v-.02875c-.0575-.37375-.2875-.69-.575-.92-.23-.14375-.31625-.43125-.23-.69s.31625-.43125.60375-.43125h1.29375c0-.66125 0-1.0925 0-1.15 0-.25875.6325-.8625.89125-1.035v-.1725h-.0575-2.185-.02875-.115-.115-.02875-2.185-.08625v.1725c.23.1725.89125.77625.89125 1.035v3.7375 10.43624c0 .2588-.6325.8625-.89125 1.035v.1725h.0575 2.185.02875.115.115.02875 2.185.0575v-.1725c-.25875-.1725-.89125-.7762-.89125-1.035z"/><path d="m13.0094 18.5724c0-.0575 0-.46 0-1.035h-.8912c-.1725 0-.3163-.23-.4313-.345-.115.115-.2875.345-.4312.345h-1.1788v1.035c0 .2587-.63248.8625-.89123 1.035v.1725h.0575 2.18503.0287.115.115.0288 2.185.0575v-.1725c-.2875-.1725-.9488-.7763-.9488-1.035z"/><path d="m10.0194 4.39866v3.7375 2.21374l.9775-3.99624c.0575-.2875.3162-.46.6037-.46s.5175.20125.6038.46l.9775 3.99624c0-2.32874-.2013-5.80749-.2013-5.95124 0-.25875.6325-.8625.8913-1.035v-.1725h-.0575-2.185-.0288-.115-.115-.0287-2.18503-.0575v.1725c.2875.20125.92003.805.92003 1.035z"/><path d="m19.1906 13.5124s0-8.82624 0-9.11374c0-.25875.6325-.8625.8913-1.035v-.1725h-.0575-2.185-.0288-.115-.0862-.0288-2.185-.0575v.1725c.23.1725.8913.77625.8913 1.035v1.15h1.2937c.2588 0 .4888.14375.575.4025.0863.23.0288.5175-.1437.69-.4025.37375-.69.83375-.8338 1.35125-.1725.69-.5462 2.67379-.8625 4.48499v6.095c0 .2588-.6325.8625-.8912 1.035v.1725h.0575 2.185.115.115.0287 2.185.0575v-.1725c-.23-.1725-.8912-.7762-.8912-1.035-.0288-.115-.0288-3.1625-.0288-5.06z"/></g></svg>
